<svg width="210" height="145" viewBox="0 0 210 145" fill="none" xmlns="http://www.w3.org/2000/svg">
<g filter="url(#filter0_d)">
<path d="M104.398 10.041C92.6286 10.0398 81.1232 13.5288 71.3367 20.0667C61.5502 26.6045 53.9221 35.8977 49.4173 46.7709C44.9126 57.6441 43.7333 69.609 46.0287 81.1524C48.3241 92.6958 53.991 103.299 62.3129 111.622C70.6347 119.945 81.2376 125.613 92.7808 127.909C104.324 130.206 116.289 129.028 127.163 124.524C138.036 120.02 147.33 112.393 153.869 102.607C160.408 92.8216 163.898 81.3164 163.898 69.547C163.899 61.7329 162.36 53.9951 159.371 46.7755C156.381 39.5559 151.998 32.996 146.473 27.4703C140.948 21.9446 134.388 17.5613 127.169 14.5708C119.95 11.5802 112.212 10.041 104.398 10.041ZM81.9661 78.722C81.8251 78.803 81.498 78.355 81.06 77.957C80.2112 77.2948 79.212 76.8524 78.1511 76.669C76.0071 76.04 73.3091 75.25 72.3331 73.619C72.0568 73.1574 71.7543 72.7121 71.4271 72.285C71.1259 71.8014 70.7178 71.3933 70.2341 71.092C69.7831 70.9018 69.2933 70.8209 68.805 70.856C66.847 70.675 65.514 68.45 65.322 68.138C64.8626 67.2385 64.542 66.2745 64.3711 65.279C64.0291 63.885 64.0991 63.579 63.8931 62.702C63.4547 61.0201 62.6212 59.4671 61.462 58.172C59.977 56.421 59.056 56.36 58.462 54.785C58.2079 54.1001 58.095 53.3708 58.1301 52.641C58.1851 50.829 59.046 49.841 60.561 47.396C62.408 44.416 63.334 42.927 63.707 41.291C64.0595 39.9737 64.3301 38.6358 64.5171 37.285C64.4585 36.7074 64.5742 36.1254 64.8491 35.614C65.0351 35.322 65.2421 35.176 65.2761 34.849C65.3161 34.466 65.076 34.23 64.894 33.849C64.6887 33.3173 64.6077 32.7458 64.6571 32.178C64.7121 30.94 66.3571 29.978 67.7571 29.178C70.7671 27.457 71.34 28.222 72.957 26.792C73.5333 26.0751 74.3444 25.5849 75.2471 25.408C75.7667 25.3933 76.2798 25.5261 76.727 25.791C77.567 26.264 77.3811 27.13 78.1111 27.462C78.5326 27.5803 78.9785 27.5803 79.4 27.462C80.1882 27.4158 80.9481 27.1509 81.5941 26.697C82.2691 26.168 82.2131 25.736 82.9281 25.409C83.0541 25.349 83.6931 25.062 83.9751 25.309C84.1511 25.465 84.0661 25.709 84.1161 26.643C84.1461 27.143 84.1611 27.403 84.2571 27.504C84.4931 27.741 84.866 27.534 86.165 27.363C86.94 27.257 87.01 27.303 87.212 27.172C87.559 26.945 87.5391 26.679 88.0731 25.934C88.5731 25.234 88.763 25.214 88.838 25.219C89.13 25.229 89.338 25.591 89.457 25.793C89.779 26.347 89.5781 26.613 89.8851 27.031C90.1055 27.2646 90.3641 27.4588 90.65 27.605C91.179 27.937 91.36 27.947 91.461 27.937C91.5712 27.9304 91.6788 27.9016 91.7775 27.8523C91.8761 27.803 91.9637 27.7342 92.035 27.65C92.235 27.383 92.0451 27.15 92.0801 26.603C92.0901 26.492 92.165 25.556 92.654 25.365C92.906 25.265 93.062 25.451 93.515 25.32C93.6807 25.2927 93.832 25.209 93.9431 25.083C94.0991 24.877 94.0031 24.665 94.0431 24.368C94.1125 24.0396 94.279 23.7396 94.5211 23.507C95.5021 22.274 95.3211 22.107 96.0001 21.507C96.3556 21.1443 96.7995 20.8806 97.2881 20.742C97.6751 20.651 97.761 20.737 98.098 20.642C98.521 20.526 98.7271 20.3 99.4321 19.595C99.8598 19.0825 100.358 18.6334 100.912 18.261C101.296 18.0539 101.716 17.9238 102.15 17.878C104.078 17.631 104.999 19.106 107.586 20.022C107.752 20.082 108.321 20.279 108.301 20.45C108.291 20.541 108.12 20.596 107.536 20.737C106.852 20.903 106.63 20.937 106.489 20.974C105.789 21.174 105.452 21.93 105.155 22.454C104.489 23.4991 103.612 24.3925 102.578 25.076C101.315 26.068 101.063 25.791 99.0951 27.176C98.9741 27.262 98.4061 27.664 97.6161 28.176C97.1117 28.5507 96.5682 28.8696 95.9951 29.127C94.9631 29.414 94.5501 28.895 93.7051 29.318C93.3265 29.4703 93.0192 29.7594 92.8441 30.128C92.6381 30.677 92.9801 31.105 92.7031 31.512C92.5207 31.7239 92.2656 31.8601 91.988 31.894C91.208 32.08 90.8661 31.718 89.9391 31.607C89.2018 31.486 88.4452 31.6208 87.795 31.989C87.629 32.095 86.869 32.583 86.889 33.227C86.909 33.856 87.6641 34.274 88.2731 34.611C89.3416 35.1053 90.4874 35.4118 91.66 35.517C92.3847 35.6483 93.1181 35.7272 93.8541 35.753C95.5251 35.809 95.978 35.532 96.144 35.421C96.5996 35.0935 96.9341 34.6245 97.0951 34.087C97.2811 33.463 97.0451 33.297 97.1951 32.607C97.3508 31.997 97.6631 31.4383 98.1011 30.986C98.5582 30.429 99.1276 29.9744 99.7721 29.652C100.557 29.259 100.92 29.34 101.01 29.365C101.236 29.425 101.272 29.516 101.775 29.888C102.149 30.2504 102.608 30.5133 103.109 30.653C103.51 30.6653 103.902 30.5289 104.209 30.27C104.209 30.27 104.214 30.265 107.833 27.839C109.383 26.802 110.299 26.183 111.361 26.41C112.031 26.551 112.509 26.999 113.461 27.89C114.072 28.3934 114.56 29.0282 114.891 29.747C115.129 30.2192 115.243 30.7438 115.223 31.272C115.157 32.188 114.649 32.208 114.413 33.321C114.342 33.643 114.408 33.537 114.272 35.178C114.27 35.549 114.222 35.9184 114.131 36.278C113.844 36.8805 113.378 37.3796 112.797 37.707C112.286 38.1866 111.663 38.5304 110.985 38.707C110.085 38.843 109.885 38.355 108.937 38.516C108.357 38.5823 107.826 38.873 107.457 39.326C107.346 39.487 107.21 39.754 107.22 41.093C107.23 42.648 107.411 42.97 107.175 43.479C106.859 44.0166 106.347 44.4108 105.746 44.579C104.015 45.2402 102.141 45.438 100.31 45.153C95.483 44.343 91.7101 44.972 84.3851 46.2C82.9561 46.442 81.6981 46.708 81.0481 47.725C80.1481 49.125 81.3901 50.438 80.9481 53.639C80.7821 54.867 80.54 56.619 79.232 57.645C78.401 58.294 78.0191 57.967 76.1821 58.692C74.758 59.0968 73.4928 59.9298 72.5581 61.078C71.8918 62.1612 71.6214 63.4419 71.7931 64.702C71.9441 66.257 73.0361 67.772 75.2251 70.807C75.7812 71.66 76.4368 72.4439 77.1781 73.142C77.9781 73.852 78.3001 73.907 79.7551 75.095C80.4914 75.6094 81.1091 76.2753 81.567 77.048C81.898 77.756 82.138 78.621 81.961 78.722H81.9661ZM130.928 96.89C130.621 98.2711 130.089 99.5924 129.353 100.801C128.417 102.301 127.753 102.628 127.637 103.801C127.671 104.506 127.607 105.213 127.446 105.901C127.339 106.464 127.013 106.962 126.54 107.285C126.184 107.452 125.784 107.502 125.398 107.426C124.014 107.345 122.781 108.619 121.538 109.907C119.872 111.623 120.456 111.774 118.916 113.294C117.991 114.383 116.856 115.275 115.579 115.916C114.819 116.243 114.089 116.404 113.812 117.059C113.56 117.659 113.938 118.076 113.621 118.775C113.38 119.252 112.974 119.624 112.478 119.822C111.633 120.134 111.114 119.59 109.806 119.298C109.167 119.107 108.495 119.047 107.832 119.121C107.169 119.194 106.527 119.4 105.945 119.726C105.245 120.277 104.757 121.051 104.561 121.92C104.449 122.661 104.416 123.412 104.461 124.16C104.485 124.526 104.485 124.894 104.461 125.26C104.43 125.924 104.215 126.567 103.842 127.117C103.725 127.327 103.568 127.511 103.379 127.659C103.19 127.806 102.974 127.915 102.742 127.978C102.499 127.996 102.254 127.963 102.024 127.88C101.795 127.798 101.585 127.668 101.408 127.5C100.938 127.095 100.592 126.567 100.408 125.975C100.227 125.368 100.099 124.747 100.025 124.118C99.663 122.679 98.882 122.709 98.258 121.209C97.909 120.315 97.7629 119.354 97.8301 118.396C97.8801 117.218 98.1921 116.926 98.3081 115.346C98.3525 114.711 98.3525 114.073 98.3081 113.438C98.2211 112.124 97.9639 110.826 97.5431 109.578C96.7431 107.026 97.412 105.978 97.02 102.285C96.98 101.928 96.1441 94.418 94.2201 94.242C92.6901 94.101 91.6991 98.721 89.4541 98.631C88.7255 98.5159 88.0673 98.1294 87.612 97.549C86.877 96.779 86.7961 96.004 86.1481 93.669C85.9122 92.6768 85.6146 91.7002 85.2571 90.745C84.5831 89.351 83.8631 88.782 83.1571 86.995C82.8957 86.4627 82.8281 85.8558 82.9661 85.279C83.0971 84.861 83.278 84.826 83.666 84.197C84.0105 83.6241 84.2684 83.0034 84.431 82.355C84.5907 81.7537 84.6767 81.1351 84.687 80.513C84.742 78.666 87.329 75.067 89.587 73.774C92.657 72.007 95.909 74.061 102.874 76.507C116.548 81.307 121.914 79.688 126.65 84.897C128.548 87.0653 129.928 89.6363 130.686 92.416C131.105 93.8697 131.188 95.3996 130.928 96.89ZM146.042 35.663C146.037 35.698 145.997 35.839 145.66 35.975C144.945 36.262 144.56 35.854 143.969 36.096C143.66 36.2303 143.414 36.477 143.28 36.786C143.172 37.198 143.232 37.636 143.446 38.004C143.768 38.739 144.135 38.784 144.423 39.554C144.521 39.7892 144.577 40.0396 144.589 40.294C144.578 40.8268 144.403 41.3433 144.089 41.774C143.752 42.343 143.45 42.851 142.896 42.967C142.656 43.0128 142.408 42.9885 142.181 42.897C141.713 42.736 141.194 42.369 139.75 39.897C138.698 38.09 139.207 38.684 138.703 37.897C138.407 37.5297 138.233 37.0797 138.203 36.609C138.193 36.3377 138.25 36.068 138.369 35.824C138.52 35.524 138.669 35.492 138.727 35.25C138.747 35.1114 138.738 34.9701 138.701 34.835C138.664 34.7 138.599 34.574 138.511 34.465C138.234 34.077 137.988 34.193 137.56 33.821C137.266 33.5038 137.025 33.1419 136.845 32.749C136.678 32.4592 136.535 32.1561 136.418 31.843C136.156 31.158 136.218 30.962 136.252 30.892C136.297 30.7804 136.368 30.681 136.459 30.6022C136.55 30.5235 136.658 30.4675 136.775 30.439C137.275 30.333 137.832 30.867 138.089 31.204C138.346 31.541 138.421 31.833 138.779 31.989C138.888 32.0495 139.013 32.0741 139.136 32.059C139.513 31.999 139.71 31.47 139.901 30.959C140.049 30.5792 140.169 30.1887 140.258 29.791C140.303 29.544 140.323 29.338 140.424 29.313C140.57 29.278 140.771 29.665 140.832 29.766C141.659 30.9375 142.611 32.0159 143.671 32.982C144.25 33.7156 144.888 34.4006 145.579 35.03C145.698 35.121 146.098 35.408 146.042 35.664V35.663ZM156.677 74.574C156.101 74.5577 155.554 74.3177 155.152 73.905C154.278 73.0635 153.553 72.0799 153.008 70.996C151.115 68.182 147.648 68.973 147.049 66.703C146.933 66.265 147.094 66.356 146.949 64.603C146.849 63.34 146.727 62.816 147.049 62.172C147.238 61.8069 147.498 61.4835 147.814 61.221C148.373 60.763 148.75 60.821 149.007 60.41C149.102 60.2278 149.16 60.0285 149.177 59.8236C149.195 59.6187 149.171 59.4125 149.107 59.217C148.855 58.427 148.161 58.467 147.773 57.596C147.598 57.2082 147.549 56.7753 147.632 56.358C147.772 55.8861 148.055 55.4693 148.442 55.165C149.328 54.36 149.771 54.571 151.019 53.685C151.346 53.454 151.487 53.318 152.119 52.875C153 52.256 153.219 52.175 153.453 52.16C153.594 52.15 154.077 52.15 154.787 52.829C155.532 53.5737 156.046 54.5175 156.267 55.547C158.134 64.234 157.334 67.108 158.22 70.994C158.346 71.547 158.738 73.133 157.933 73.994C157.604 74.3406 157.155 74.5484 156.677 74.575V74.574Z" fill="white"/>
</g>
<g filter="url(#filter1_d)">
<path d="M73.5781 12.6099C79.7743 9.12925 86.4953 6.6796 93.478 5.35689C96.9801 4.6936 100.53 4.31337 104.093 4.21989C107.669 4.14795 111.245 4.33812 114.793 4.78889C118.346 5.29218 121.856 6.0644 125.293 7.09889C128.737 8.14647 132.088 9.4815 135.309 11.0899C141.802 14.3093 147.736 18.551 152.884 23.6529L150.353 26.0989C145.646 21.0328 140.156 16.7557 134.092 13.4309C131.054 11.7571 127.882 10.3379 124.609 9.18789C121.321 8.0462 117.951 7.1563 114.528 6.52589C111.084 5.94294 107.602 5.61339 104.11 5.53989C93.5087 5.37328 83.0273 7.80037 73.5781 12.6099Z" fill="white"/>
</g>
<g filter="url(#filter2_d)">
<path d="M160.167 103.41C165.418 94.2026 168.338 83.851 168.673 73.2569C168.764 69.7648 168.598 66.2709 168.179 62.8029C167.712 59.3526 166.984 55.9428 166 52.6029C165.01 49.2779 163.742 46.0418 162.21 42.9289C159.178 36.7146 155.165 31.0283 150.327 26.0879L152.893 23.6719C157.746 29.0545 161.702 35.1824 164.61 41.8209C166.062 45.1175 167.238 48.5293 168.123 52.0209C168.995 55.5014 169.599 59.0433 169.93 62.6159C170.211 66.1813 170.231 69.7626 169.99 73.3309C169.729 76.8855 169.182 80.4132 168.354 83.8799C166.704 90.7914 163.939 97.3879 160.167 103.41Z" fill="white"/>
</g>
<g filter="url(#filter3_d)">
<path d="M135.499 127.538C129.303 131.02 122.582 133.47 115.599 134.791C112.097 135.454 108.547 135.835 104.984 135.929C101.408 136.001 97.8319 135.81 94.2839 135.36C90.7306 134.856 87.2206 134.084 83.7839 133.05C80.3395 132.002 76.9892 130.667 73.7681 129.059C67.2748 125.839 61.3407 121.598 56.1929 116.496L58.7239 114.05C63.4312 119.116 68.922 123.393 74.9861 126.718C78.0239 128.392 81.1954 129.811 84.468 130.961C87.7559 132.103 91.1261 132.993 94.5491 133.623C97.9933 134.206 101.476 134.536 104.968 134.61C115.567 134.774 126.046 132.347 135.493 127.538H135.499Z" fill="white"/>
</g>
<g filter="url(#filter4_d)">
<path d="M48.9029 36.75C43.6517 45.9572 40.7316 56.3088 40.397 66.903C40.3066 70.395 40.4714 73.8889 40.89 77.3569C41.3567 80.8073 42.0851 84.2172 43.069 87.557C44.059 90.8819 45.3268 94.1176 46.859 97.23C49.8914 103.444 53.9035 109.131 58.7419 114.071L56.175 116.487C51.3236 111.103 47.3676 104.976 44.458 98.338C43.0061 95.0413 41.831 91.6295 40.9449 88.1379C40.0731 84.6579 39.4691 81.1162 39.138 77.5439C38.8563 73.9785 38.8362 70.3973 39.078 66.829C39.3396 63.2745 39.8866 59.7467 40.714 56.2799C42.3647 49.3683 45.1306 42.772 48.9029 36.75Z" fill="white"/>
</g>
<g filter="url(#filter5_d)">
<path d="M202.583 14.3848C200.962 11.3098 197.731 10.0668 195.24 9.10976C190.24 7.18676 186.05 7.96777 178.399 9.39677C172.093 10.5222 165.979 12.5369 160.24 15.3808C157.947 16.5367 155.725 17.829 153.586 19.2508C163.803 15.5508 172.697 13.0958 179.686 12.0988C188.036 10.9058 193.658 11.7918 195.54 15.0738C197.664 18.7738 194.75 25.0438 187.94 32.8658C175.04 47.6778 148.153 68.0518 115.031 87.0658L114.191 87.5488C111.156 89.2848 108.131 90.9668 105.142 92.5968C93.942 98.6968 83.087 104.037 72.981 108.497C57.761 115.216 49.789 118.697 37.981 121.205C26.692 123.605 15.418 125.991 12.529 121.678C11.129 119.578 9.47902 112.578 35.037 86.1778C30.1704 89.5319 25.5347 93.2092 21.161 97.1848C10.235 107.125 8.48302 112.107 7.89802 114.065C7.08302 116.823 5.55802 121.965 8.10902 126.004C11.209 130.896 18.432 131.604 24.134 131.435C30.914 131.229 39.434 129.648 49.189 126.835C59.8339 123.671 70.2666 119.833 80.424 115.345C88.698 111.745 97.35 107.584 106.198 102.918C110.673 100.562 115.189 98.0778 119.747 95.4638L119.823 95.4238C149.991 78.1048 174.91 59.0648 189.531 43.2358C191.631 40.9608 193.531 38.7468 195.188 36.6178C198.763 32.0408 206.257 21.3608 202.583 14.3848Z" fill="white"/>
</g>
<path d="M18.0009 90.5399C18.8969 90.5399 19.7727 90.2743 20.5177 89.7765C21.2626 89.2787 21.8433 88.5713 22.1861 87.7435C22.529 86.9158 22.6187 86.0048 22.4439 85.1261C22.2691 84.2474 21.8377 83.4403 21.2041 82.8068C20.5706 82.1732 19.7634 81.7418 18.8847 81.567C18.006 81.3922 17.0951 81.482 16.2674 81.8248C15.4396 82.1677 14.7321 82.7483 14.2344 83.4933C13.7366 84.2382 13.4709 85.1139 13.4709 86.0099C13.4709 87.2113 13.9482 88.3635 14.7978 89.213C15.6473 90.0626 16.7995 90.5399 18.0009 90.5399Z" fill="#6C63FF"/>
<path d="M37.13 103.626C37.6279 103.626 38.1147 103.479 38.5288 103.202C38.9429 102.926 39.2655 102.532 39.4562 102.072C39.6468 101.613 39.6968 101.106 39.5997 100.618C39.5026 100.13 39.2628 99.6811 38.9108 99.3291C38.5587 98.977 38.1102 98.7372 37.6218 98.6401C37.1335 98.543 36.6273 98.593 36.1674 98.7836C35.7074 98.9743 35.3142 99.2971 35.0377 99.7111C34.7612 100.125 34.6138 100.612 34.614 101.11C34.614 101.777 34.8791 102.417 35.351 102.889C35.8228 103.361 36.4627 103.626 37.13 103.626Z" fill="#6C63FF"/>
<path d="M33.351 118.222C34.1971 118.222 35.0242 117.971 35.7277 117.501C36.4312 117.031 36.9796 116.363 37.3033 115.581C37.6271 114.799 37.7119 113.939 37.5468 113.109C37.3817 112.28 36.9743 111.517 36.376 110.919C35.7777 110.321 35.0155 109.913 34.1856 109.748C33.3558 109.583 32.4956 109.668 31.7139 109.992C30.9322 110.316 30.2641 110.864 29.794 111.567C29.3239 112.271 29.073 113.098 29.073 113.944C29.073 115.079 29.5237 116.167 30.326 116.969C31.1283 117.772 32.2164 118.222 33.351 118.222Z" fill="#6C63FF"/>
<path d="M31.589 73.428C32.0866 73.428 32.5731 73.2804 32.9868 73.0039C33.4006 72.7275 33.7231 72.3345 33.9135 71.8748C34.1039 71.4151 34.1537 70.9092 34.0566 70.4212C33.9596 69.9331 33.72 69.4847 33.3681 69.1328C33.0162 68.781 32.5679 68.5414 32.0798 68.4444C31.5918 68.3473 31.0859 68.397 30.6262 68.5874C30.1664 68.7779 29.7735 69.1004 29.497 69.5142C29.2205 69.9279 29.073 70.4143 29.073 70.9119C29.073 71.5792 29.3381 72.2191 29.8099 72.691C30.2818 73.1628 30.9217 73.428 31.589 73.428Z" fill="#6C63FF"/>
<path d="M22.2789 59.8392C22.7269 59.8392 23.1648 59.7062 23.5373 59.4573C23.9098 59.2085 24.2001 58.8549 24.3715 58.441C24.543 58.0271 24.5878 57.5715 24.5004 57.1321C24.413 56.6928 24.1973 56.2892 23.8805 55.9725C23.5637 55.6557 23.1601 55.44 22.7208 55.3526C22.2814 55.2652 21.826 55.3101 21.4121 55.4815C20.9982 55.6529 20.6445 55.9433 20.3956 56.3157C20.1467 56.6882 20.0139 57.1261 20.0139 57.574C20.0139 58.1748 20.2525 58.7511 20.6773 59.1758C21.1021 59.6006 21.6782 59.8392 22.2789 59.8392Z" fill="#6C63FF"/>
<path d="M174.277 26.62C175.123 26.6202 175.951 26.3694 176.654 25.8995C177.358 25.4295 177.907 24.7615 178.23 23.9798C178.554 23.1981 178.639 22.3379 178.474 21.508C178.309 20.6781 177.902 19.9157 177.304 19.3173C176.705 18.7189 175.943 18.3114 175.113 18.1462C174.283 17.9811 173.423 18.0658 172.641 18.3895C171.859 18.7133 171.191 19.2616 170.721 19.9651C170.251 20.6687 170 21.4958 170 22.342C170 23.4764 170.451 24.5644 171.253 25.3666C172.055 26.1689 173.143 26.6197 174.277 26.62Z" fill="#6C63FF"/>
<path d="M170.754 37.6932C171.202 37.6932 171.64 37.5602 172.012 37.3113C172.385 37.0625 172.675 36.7087 172.847 36.2949C173.018 35.881 173.063 35.4256 172.976 34.9863C172.888 34.5469 172.672 34.1432 172.356 33.8265C172.039 33.5097 171.635 33.294 171.196 33.2066C170.757 33.1192 170.301 33.1641 169.887 33.3355C169.474 33.5069 169.12 33.7973 168.871 34.1697C168.622 34.5422 168.489 34.9802 168.489 35.4282C168.489 36.0289 168.728 36.605 169.153 37.0297C169.577 37.4545 170.153 37.6932 170.754 37.6932Z" fill="#6C63FF"/>
<path d="M196.172 64.872C197.068 64.8722 197.944 64.6067 198.689 64.1091C199.434 63.6115 200.015 62.9041 200.358 62.0764C200.701 61.2487 200.791 60.3378 200.616 59.459C200.442 58.5802 200.01 57.7728 199.377 57.1391C198.743 56.5055 197.936 56.074 197.057 55.8991C196.179 55.7243 195.268 55.8139 194.44 56.1567C193.612 56.4995 192.904 57.0802 192.406 57.8252C191.909 58.5701 191.643 59.446 191.643 60.342C191.643 61.5433 192.12 62.6954 192.969 63.5449C193.819 64.3944 194.971 64.8718 196.172 64.872Z" fill="#6C63FF"/>
<path d="M192.652 91.0427C193.15 91.0427 193.637 90.8952 194.051 90.6187C194.465 90.3421 194.787 89.9489 194.978 89.489C195.168 89.0291 195.218 88.5229 195.121 88.0347C195.024 87.5464 194.784 87.0981 194.432 86.7461C194.08 86.3941 193.631 86.1543 193.143 86.0571C192.655 85.96 192.149 86.0099 191.689 86.2004C191.229 86.3909 190.836 86.7135 190.56 87.1274C190.283 87.5414 190.135 88.0281 190.135 88.5259C190.135 88.8565 190.2 89.1836 190.327 89.489C190.453 89.7945 190.638 90.0722 190.872 90.3059C191.106 90.5397 191.384 90.7249 191.689 90.8513C191.994 90.9778 192.322 91.0429 192.652 91.0427Z" fill="#6C63FF"/>
<path d="M183.086 77.9568C183.584 77.9568 184.071 77.8093 184.485 77.5327C184.899 77.2561 185.221 76.863 185.411 76.4031C185.602 75.9432 185.652 75.4372 185.555 74.949C185.458 74.4607 185.218 74.0122 184.866 73.6602C184.514 73.3082 184.065 73.0683 183.577 72.9712C183.089 72.8741 182.583 72.924 182.123 73.1145C181.663 73.305 181.27 73.6276 180.994 74.0415C180.717 74.4554 180.569 74.9421 180.569 75.4399C180.569 76.1075 180.834 76.7477 181.307 77.2197C181.779 77.6918 182.419 77.9568 183.086 77.9568Z" fill="#6C63FF"/>
<g filter="url(#filter6_d)">
<path d="M136.501 58.6149L140.734 56.421C140.807 56.3843 140.867 56.3263 140.906 56.2547C140.945 56.1831 140.961 56.1014 140.952 56.0203C140.943 55.9393 140.91 55.8629 140.857 55.8013C140.803 55.7398 140.732 55.6961 140.653 55.676L80.1533 38.926C80.1443 38.9269 80.1351 38.9252 80.1271 38.921C80.0992 38.9152 80.0708 38.9118 80.0422 38.911C80.0201 38.9099 79.998 38.9116 79.9763 38.916C79.9613 38.921 79.9461 38.921 79.9311 38.926C79.9033 38.9347 79.8766 38.9465 79.8513 38.961C79.8413 38.961 79.8312 38.9759 79.8212 38.9809C79.7998 38.9961 79.7794 39.0129 79.7602 39.0309C79.7426 39.0469 79.7275 39.0655 79.7153 39.086C79.7058 39.0968 79.6972 39.1084 79.6901 39.1209C79.6746 39.1456 79.6641 39.1732 79.6591 39.202C79.6536 39.2164 79.6502 39.2315 79.6491 39.2469C79.6447 39.2683 79.6432 39.2902 79.6442 39.312C79.645 39.3409 79.6484 39.3696 79.6542 39.3979C79.652 39.4061 79.652 39.4147 79.6542 39.4229L96.4042 99.9229C96.4261 100.002 96.4712 100.072 96.5336 100.125C96.5961 100.178 96.6729 100.211 96.7543 100.22C96.8358 100.229 96.918 100.212 96.9902 100.174C97.0624 100.135 97.1213 100.076 97.1591 100.003L107.104 80.7769C107.133 80.7198 107.176 80.6705 107.228 80.633C107.28 80.5955 107.34 80.5707 107.403 80.561C107.466 80.5512 107.531 80.5567 107.592 80.5768C107.653 80.597 107.708 80.6313 107.753 80.6769L126.999 99.9229C127.036 99.9612 127.081 99.9916 127.13 100.012C127.179 100.033 127.232 100.044 127.286 100.044C127.339 100.044 127.392 100.033 127.441 100.012C127.49 99.9916 127.535 99.9612 127.572 99.9229L134.115 93.3799V93.3749L140.653 86.837L141.896 85.5939C142.068 85.4223 142.164 85.1896 142.164 84.947C142.164 84.7043 142.068 84.4716 141.896 84.3L136.239 78.6429L136.229 78.6529L123.742 66.166C123.67 66.0932 123.615 66.0044 123.584 65.9068C123.552 65.8092 123.544 65.7054 123.559 65.6039C123.575 65.5025 123.615 65.4061 123.675 65.3227C123.734 65.2393 123.813 65.1713 123.904 65.124L129.923 62.009L136.501 58.6149Z" fill="white"/>
</g>
<g filter="url(#filter7_d)">
<path d="M136.501 58.6149L140.734 56.421C140.807 56.3843 140.867 56.3263 140.906 56.2547C140.945 56.1831 140.961 56.1014 140.952 56.0203C140.943 55.9393 140.91 55.8629 140.857 55.8013C140.803 55.7398 140.732 55.6961 140.653 55.676L80.1533 38.926C80.1443 38.9269 80.1351 38.9252 80.1271 38.921C80.0992 38.9152 80.0708 38.9118 80.0422 38.911C80.0201 38.9099 79.998 38.9116 79.9763 38.916C79.9613 38.921 79.9461 38.921 79.9311 38.926C79.9033 38.9347 79.8766 38.9465 79.8513 38.961C79.8413 38.961 79.8312 38.9759 79.8212 38.9809C79.7998 38.9961 79.7794 39.0129 79.7602 39.0309C79.7426 39.0469 79.7275 39.0655 79.7153 39.086C79.7058 39.0968 79.6972 39.1084 79.6901 39.1209C79.6746 39.1456 79.6641 39.1732 79.6591 39.202C79.6536 39.2164 79.6502 39.2315 79.6491 39.2469C79.6447 39.2683 79.6432 39.2902 79.6442 39.312C79.645 39.3409 79.6484 39.3696 79.6542 39.3979C79.652 39.4061 79.652 39.4147 79.6542 39.4229L96.4042 99.9229C96.4261 100.002 96.4712 100.072 96.5336 100.125C96.5961 100.178 96.6729 100.211 96.7543 100.22C96.8358 100.229 96.918 100.212 96.9902 100.174C97.0624 100.135 97.1213 100.076 97.1591 100.003L107.104 80.7769C107.133 80.7198 107.176 80.6705 107.228 80.633C107.28 80.5955 107.34 80.5707 107.403 80.561C107.466 80.5512 107.531 80.5567 107.592 80.5768C107.653 80.597 107.708 80.6313 107.753 80.6769L126.999 99.9229C127.036 99.9612 127.081 99.9916 127.13 100.012C127.179 100.033 127.232 100.044 127.286 100.044C127.339 100.044 127.392 100.033 127.441 100.012C127.49 99.9916 127.535 99.9612 127.572 99.9229L134.115 93.3799V93.3749L140.653 86.837L141.896 85.5939C142.068 85.4223 142.164 85.1896 142.164 84.947C142.164 84.7043 142.068 84.4716 141.896 84.3L136.239 78.6429L136.229 78.6529L123.742 66.166C123.67 66.0932 123.615 66.0044 123.584 65.9068C123.552 65.8092 123.544 65.7054 123.559 65.6039C123.575 65.5025 123.615 65.4061 123.675 65.3227C123.734 65.2393 123.813 65.1713 123.904 65.124L129.923 62.009L136.501 58.6149Z" stroke="white" stroke-width="7" stroke-miterlimit="10"/>
</g>
<path d="M137.365 56.633L80.3831 40.853H80.358C80.3317 40.8472 80.3051 40.8438 80.2782 40.843C80.258 40.8422 80.2378 40.8439 80.2181 40.848C80.2031 40.853 80.1931 40.853 80.1771 40.858C80.151 40.8649 80.1258 40.875 80.1021 40.888C80.0921 40.893 80.0821 40.903 80.0721 40.908C80.0524 40.9217 80.0335 40.9367 80.016 40.953C79.9999 40.9704 79.9849 40.9888 79.971 41.008C79.9634 41.0191 79.9567 41.0309 79.951 41.043C79.9393 41.0673 79.9292 41.0923 79.921 41.118C79.9154 41.1324 79.912 41.1476 79.911 41.163C79.9086 41.183 79.9086 41.203 79.911 41.223C79.9118 41.2502 79.9151 41.2774 79.921 41.304C79.9187 41.3122 79.9187 41.3208 79.921 41.3289L95.6952 98.3129C95.7155 98.3872 95.7576 98.4536 95.8163 98.5035C95.8749 98.5534 95.947 98.5845 96.0235 98.5927C96.1001 98.6009 96.1773 98.5858 96.2452 98.5495C96.3131 98.5132 96.3685 98.4572 96.4041 98.389L105.77 80.28C105.797 80.2263 105.837 80.1798 105.885 80.1442C105.934 80.1087 105.99 80.085 106.049 80.0753C106.109 80.0655 106.169 80.0699 106.227 80.0881C106.284 80.1063 106.336 80.1378 106.379 80.18L124.508 98.309C124.544 98.3449 124.586 98.3733 124.632 98.3928C124.679 98.4122 124.729 98.4223 124.78 98.4223C124.83 98.4223 124.88 98.4122 124.927 98.3928C124.973 98.3733 125.016 98.3449 125.051 98.309L131.212 92.149C131.248 92.1133 131.276 92.0709 131.296 92.0242C131.315 91.9776 131.325 91.9276 131.325 91.877C131.325 91.8265 131.315 91.7764 131.296 91.7297C131.276 91.683 131.248 91.6406 131.212 91.6049L85.8121 46.205L133.163 59.316C133.352 59.3673 133.553 59.3458 133.727 59.2559L137.446 57.3339C137.511 57.2963 137.563 57.2406 137.597 57.1737C137.63 57.1067 137.643 57.0314 137.635 56.957C137.626 56.8826 137.596 56.8123 137.548 56.7547C137.5 56.6972 137.437 56.6549 137.365 56.633Z" fill="#6C63FF"/>
<path d="M132.709 78.7729L138.487 84.5508C138.528 84.5923 138.551 84.6484 138.551 84.7068C138.551 84.7652 138.528 84.8212 138.487 84.8628L136.862 86.4888C136.934 86.4167 136.975 86.3191 136.975 86.2173C136.975 86.1154 136.934 86.0178 136.862 85.9458L118.734 67.8169C118.691 67.7748 118.658 67.723 118.639 67.6658C118.62 67.6085 118.615 67.5474 118.625 67.4878C118.634 67.4282 118.657 67.3717 118.693 67.323C118.729 67.2743 118.775 67.2347 118.829 67.2077L120.163 66.5178C120.215 66.491 120.275 66.4815 120.333 66.4907C120.39 66.4999 120.444 66.5272 120.485 66.5688L132.7 78.7839L132.709 78.7729Z" fill="#6C63FF"/>
<defs>
<filter id="filter0_d" x="34.886" y="0.0410156" width="139.012" height="139.012" filterUnits="userSpaceOnUse" color-interpolation-filters="sRGB">
<feFlood flood-opacity="0" result="BackgroundImageFix"/>
<feColorMatrix in="SourceAlpha" type="matrix" values="0 0 0 0 0 0 0 0 0 0 0 0 0 0 0 0 0 0 127 0"/>
<feOffset/>
<feGaussianBlur stdDeviation="5"/>
<feColorMatrix type="matrix" values="0 0 0 0 0 0 0 0 0 0 0 0 0 0 0 0 0 0 0.161 0"/>
<feBlend mode="normal" in2="BackgroundImageFix" result="effect1_dropShadow"/>
<feBlend mode="normal" in="SourceGraphic" in2="effect1_dropShadow" result="shape"/>
</filter>
<filter id="filter1_d" x="67.5781" y="1.20508" width="91.3059" height="33.8938" filterUnits="userSpaceOnUse" color-interpolation-filters="sRGB">
<feFlood flood-opacity="0" result="BackgroundImageFix"/>
<feColorMatrix in="SourceAlpha" type="matrix" values="0 0 0 0 0 0 0 0 0 0 0 0 0 0 0 0 0 0 127 0"/>
<feOffset dy="3"/>
<feGaussianBlur stdDeviation="3"/>
<feColorMatrix type="matrix" values="0 0 0 0 0 0 0 0 0 0 0 0 0 0 0 0 0 0 0.161 0"/>
<feBlend mode="normal" in2="BackgroundImageFix" result="effect1_dropShadow"/>
<feBlend mode="normal" in="SourceGraphic" in2="effect1_dropShadow" result="shape"/>
</filter>
<filter id="filter2_d" x="144.327" y="20.6719" width="31.8303" height="91.738" filterUnits="userSpaceOnUse" color-interpolation-filters="sRGB">
<feFlood flood-opacity="0" result="BackgroundImageFix"/>
<feColorMatrix in="SourceAlpha" type="matrix" values="0 0 0 0 0 0 0 0 0 0 0 0 0 0 0 0 0 0 127 0"/>
<feOffset dy="3"/>
<feGaussianBlur stdDeviation="3"/>
<feColorMatrix type="matrix" values="0 0 0 0 0 0 0 0 0 0 0 0 0 0 0 0 0 0 0.161 0"/>
<feBlend mode="normal" in2="BackgroundImageFix" result="effect1_dropShadow"/>
<feBlend mode="normal" in="SourceGraphic" in2="effect1_dropShadow" result="shape"/>
</filter>
<filter id="filter3_d" x="50.1929" y="111.05" width="91.3062" height="33.8941" filterUnits="userSpaceOnUse" color-interpolation-filters="sRGB">
<feFlood flood-opacity="0" result="BackgroundImageFix"/>
<feColorMatrix in="SourceAlpha" type="matrix" values="0 0 0 0 0 0 0 0 0 0 0 0 0 0 0 0 0 0 127 0"/>
<feOffset dy="3"/>
<feGaussianBlur stdDeviation="3"/>
<feColorMatrix type="matrix" values="0 0 0 0 0 0 0 0 0 0 0 0 0 0 0 0 0 0 0.161 0"/>
<feBlend mode="normal" in2="BackgroundImageFix" result="effect1_dropShadow"/>
<feBlend mode="normal" in="SourceGraphic" in2="effect1_dropShadow" result="shape"/>
</filter>
<filter id="filter4_d" x="32.9105" y="33.75" width="31.8314" height="91.7369" filterUnits="userSpaceOnUse" color-interpolation-filters="sRGB">
<feFlood flood-opacity="0" result="BackgroundImageFix"/>
<feColorMatrix in="SourceAlpha" type="matrix" values="0 0 0 0 0 0 0 0 0 0 0 0 0 0 0 0 0 0 127 0"/>
<feOffset dy="3"/>
<feGaussianBlur stdDeviation="3"/>
<feColorMatrix type="matrix" values="0 0 0 0 0 0 0 0 0 0 0 0 0 0 0 0 0 0 0.161 0"/>
<feBlend mode="normal" in2="BackgroundImageFix" result="effect1_dropShadow"/>
<feBlend mode="normal" in="SourceGraphic" in2="effect1_dropShadow" result="shape"/>
</filter>
<filter id="filter5_d" x="0.696899" y="4.96533" width="208.874" height="135.491" filterUnits="userSpaceOnUse" color-interpolation-filters="sRGB">
<feFlood flood-opacity="0" result="BackgroundImageFix"/>
<feColorMatrix in="SourceAlpha" type="matrix" values="0 0 0 0 0 0 0 0 0 0 0 0 0 0 0 0 0 0 127 0"/>
<feOffset dy="3"/>
<feGaussianBlur stdDeviation="3"/>
<feColorMatrix type="matrix" values="0 0 0 0 0 0 0 0 0 0 0 0 0 0 0 0 0 0 0.161 0"/>
<feBlend mode="normal" in2="BackgroundImageFix" result="effect1_dropShadow"/>
<feBlend mode="normal" in="SourceGraphic" in2="effect1_dropShadow" result="shape"/>
</filter>
<filter id="filter6_d" x="73.6439" y="35.9106" width="74.5203" height="73.3116" filterUnits="userSpaceOnUse" color-interpolation-filters="sRGB">
<feFlood flood-opacity="0" result="BackgroundImageFix"/>
<feColorMatrix in="SourceAlpha" type="matrix" values="0 0 0 0 0 0 0 0 0 0 0 0 0 0 0 0 0 0 127 0"/>
<feOffset dy="3"/>
<feGaussianBlur stdDeviation="3"/>
<feColorMatrix type="matrix" values="0 0 0 0 0 0 0 0 0 0 0 0 0 0 0 0 0 0 0.161 0"/>
<feBlend mode="normal" in2="BackgroundImageFix" result="effect1_dropShadow"/>
<feBlend mode="normal" in="SourceGraphic" in2="effect1_dropShadow" result="shape"/>
</filter>
<filter id="filter7_d" x="70.1439" y="32.374" width="81.5203" height="80.3484" filterUnits="userSpaceOnUse" color-interpolation-filters="sRGB">
<feFlood flood-opacity="0" result="BackgroundImageFix"/>
<feColorMatrix in="SourceAlpha" type="matrix" values="0 0 0 0 0 0 0 0 0 0 0 0 0 0 0 0 0 0 127 0"/>
<feOffset dy="3"/>
<feGaussianBlur stdDeviation="3"/>
<feColorMatrix type="matrix" values="0 0 0 0 0 0 0 0 0 0 0 0 0 0 0 0 0 0 0.161 0"/>
<feBlend mode="normal" in2="BackgroundImageFix" result="effect1_dropShadow"/>
<feBlend mode="normal" in="SourceGraphic" in2="effect1_dropShadow" result="shape"/>
</filter>
</defs>
</svg>
